<mxfile host="app.diagrams.net" modified="2024-05-29T02:24:38.925Z" agent="Mozilla/5.0 (Windows NT 10.0; Win64; x64) AppleWebKit/537.36 (KHTML, like Gecko) Chrome/124.0.0.0 Safari/537.36" version="24.4.9" etag="PDiA762afludfH10-IvU" type="github">
  <diagram name="第 1 页" id="cMlCufuRebBK2jcOgBXe">
    <mxGraphModel>
      <root>
        <mxCell id="0" />
        <mxCell id="1" parent="0" />
      </root>
    </mxGraphModel>
  </diagram>
</mxfile>
